<svg width="162" height="148" viewBox="0 0 202 188" fill="none" xmlns="http://www.w3.org/2000/svg">
<path fill-rule="evenodd" clip-rule="evenodd" d="M201.57 100.154C203.817 206.062 59.9741 194.002 25.7489 147.697C-44.2115 19.3528 88.2351 -6.79501 136.011 2.20534C163.478 7.37972 200.052 28.5592 201.57 100.154Z" fill="#F5F5F5"/>
<path fill-rule="evenodd" clip-rule="evenodd" d="M106.044 149.869C116.302 136.573 119.542 121.565 122.043 101.798C123.34 91.5484 103.803 90.2941 101.89 102.924C100.026 115.24 102.394 129.155 92.5732 140.249C82.1213 152.058 70.0291 159.909 62.2468 162.044C57.3764 163.381 50.2456 162.242 49.7294 164.152C49.4673 165.117 51.189 164.418 51.0959 165.334C51.0431 165.861 49.6231 165.801 48.6244 166.107C47.2361 166.533 45.5488 168.169 45.5435 168.825C45.5211 171.499 48.6178 174.76 52.2406 173.612C53.846 173.104 67.0644 168.786 68.8514 168.143C74.5173 166.105 97.8668 160.468 106.044 149.869Z" fill="#87BBD9"/>
<path fill-rule="evenodd" clip-rule="evenodd" d="M121.837 87.9624C112.805 84.8011 97.3742 95.5859 98.9955 109.009C99.5737 113.794 108.014 116.082 114.639 116.677C120.505 117.204 118.746 115.649 122.311 103.169C123.998 97.2632 133.108 91.9077 121.837 87.9624Z" fill="white"/>
<path fill-rule="evenodd" clip-rule="evenodd" d="M115.923 72.2581C111.561 70.622 108.036 67.1815 105.548 56.7969C100.564 36.0047 103.644 30.1199 114.746 26.5627C131.4 21.228 138.424 29.965 141.953 40.0118C145.482 50.058 142.006 62.3885 144.146 70.0076C145.893 76.2302 148.35 81.1392 156.986 86.9226C166.942 93.5908 138.899 120.272 122.311 102.195C115.308 94.5628 116.954 93.411 119.273 89.2465C121.591 85.0826 124.564 75.4991 115.923 72.2581Z" fill="#87BBD9"/>
<path fill-rule="evenodd" clip-rule="evenodd" d="M104.84 39.0187C111.29 40.5446 134.148 28.3161 135.398 40.5325C136.861 54.8178 141.221 44.3121 142.82 59.2896C143.768 68.1764 160.234 26.5429 139.138 19.9736C116.938 13.0594 111.62 21.8608 105.511 20.6995C96.8909 19.0602 97.928 37.3839 104.84 39.0187Z" fill="#0C5077"/>
<path fill-rule="evenodd" clip-rule="evenodd" d="M123.422 50.6673C123.459 49.9445 123.136 49.5474 122.292 49.2441C121.553 48.9783 120.891 49.4372 120.745 49.8183C120.414 50.68 121.19 52.1804 122.318 51.9873C123.083 51.856 123.392 51.2702 123.422 50.6673Z" fill="#083752"/>
<path fill-rule="evenodd" clip-rule="evenodd" d="M110.532 51.6354C110.463 50.942 110.136 50.6157 109.383 50.4608C108.722 50.325 108.227 50.8668 108.156 51.2524C107.996 52.1243 108.857 53.4284 109.782 53.0657C110.409 52.8203 110.589 52.2135 110.532 51.6354Z" fill="#083752"/>
<path fill-rule="evenodd" clip-rule="evenodd" d="M118.344 64.2137C115.63 64.7197 113.59 62.1964 114.286 61.6317C116.261 60.0268 120.672 60.8382 120.707 60.8764C121.132 61.364 119.736 63.9543 118.344 64.2137Z" fill="white"/>
<path fill-rule="evenodd" clip-rule="evenodd" d="M124.745 47.0342C121.987 46.0992 119.339 46.8564 117.859 48.0547C117.447 48.3886 117.296 48.9419 117.557 49.3339C117.82 49.7271 118.342 49.5072 118.777 49.2026C119.941 48.3848 121.431 47.6104 124.74 48.7303C125.197 48.8851 125.864 48.954 126.038 48.4638C126.191 48.0311 125.699 47.3574 124.745 47.0342Z" fill="#0C5077"/>
<path fill-rule="evenodd" clip-rule="evenodd" d="M110.621 47.0149C108.955 46.2959 107.03 46.6458 105.368 47.2864C104.583 47.5891 104.47 48.2654 104.681 48.6032C104.92 48.9856 105.329 48.8581 105.701 48.7026C107.535 47.9378 108.838 47.5005 110.086 48.1048C111.948 49.0066 112.518 49.869 111.94 53.1508C111.304 56.7526 114.087 57.0935 114.412 56.7226C114.838 56.2369 113.647 55.7455 113.286 55.4205C112.298 54.5307 113.749 51.8894 113.326 49.9844C112.88 47.9786 111.963 47.5942 110.621 47.0149Z" fill="#0C5077"/>
<path fill-rule="evenodd" clip-rule="evenodd" d="M138.602 57.6253C143.232 56.9542 143.4 54.1287 143.162 52.6806C142.577 49.1324 139.668 48.263 136.258 50.1044C134.124 51.2568 136.298 57.9593 138.602 57.6253Z" fill="#87BBD9"/>
<path fill-rule="evenodd" clip-rule="evenodd" d="M170.419 134.17C170.419 150.019 167.724 161.807 170.419 174.702C172.427 184.304 170.277 182.544 143.862 184.378C117.877 186.184 99.301 188.438 100.496 183.894C105.623 164.406 107.065 148.127 105.521 118.81C104.29 95.4361 112.567 85.6707 119.296 87.6817C121.631 88.3798 112.517 94.725 127.931 95.034C141.652 95.3087 153.014 84.1154 154.806 84.4773C177.428 89.0449 170.419 117.582 170.419 134.17Z" fill="white"/>
<path fill-rule="evenodd" clip-rule="evenodd" d="M146.226 166.571C159.262 153.151 165.855 137.162 172.816 115.928C176.426 104.916 157.682 101.584 152.928 115.121C148.292 128.32 147.413 143.685 135.307 154.756C122.423 166.539 108.845 173.856 100.776 175.393C95.7257 176.355 89.041 174.399 88.1002 176.424C87.6248 177.446 89.4619 176.86 89.1614 177.846C88.9892 178.413 87.6195 178.204 86.577 178.436C85.1269 178.76 83.109 180.369 82.9534 181.08C82.3191 183.986 84.3091 186.466 88.1002 185.584C90.8988 186.226 104.084 184.032 105.972 183.513C111.958 181.867 135.835 177.269 146.226 166.571Z" fill="#87BBD9"/>
<path fill-rule="evenodd" clip-rule="evenodd" d="M163 88.0001C173 94 176.959 112.253 170.501 124.295C168.199 128.588 156.896 126.817 150.445 125.041C144.733 123.468 146.96 122.626 148.193 109.641C148.776 103.497 156 83.8001 163 88.0001Z" fill="white"/>
<path fill-rule="evenodd" clip-rule="evenodd" d="M4.03207 129.479C2.31257 129.386 -0.48365 130.31 0.0715485 136.121C0.0715485 136.121 7.13436 169.407 8.61266 178.201C8.61266 189.917 58.367 187.587 97.0195 185.654C96.2076 171.217 88.4456 137.214 88.4456 137.214C88.1612 135.789 87.4396 131.461 82.0918 131.352L4.03207 129.479Z" fill="#CCCCCC"/>
<path fill-rule="evenodd" clip-rule="evenodd" d="M53.4344 160.613C53.1615 164.644 50.2143 167.743 44.3045 167.376C38.3961 167.009 35.8923 163.573 36.1652 159.541C36.4387 155.51 39.7275 154.707 45.295 152.779C50.6274 150.931 53.7079 156.582 53.4344 160.613Z" fill="#F5F5F5"/>
<path fill-rule="evenodd" clip-rule="evenodd" d="M46.3683 50.0022C57.1609 44.8646 63.0506 30.7866 61.367 21.1457C58.5087 4.77513 27.912 -1.40447 17.7702 14.5902C-1.73405 45.3505 33.6209 56.0709 46.3683 50.0022Z" fill="#FD6340"/>
<path fill-rule="evenodd" clip-rule="evenodd" d="M41.9239 41.6029C32.9072 49.5044 20.76 39.0492 28.5604 31.6681C31.3371 29.0406 34.2138 27.195 34.7154 22.0262C35.0921 18.144 40.7472 19.6772 39.9753 24.1386C38.9416 30.1127 36.5868 31.4011 33.46 34.9624C31.0634 37.6921 34.4053 41.1765 39.3564 37.1722C42.8665 34.3333 45.5144 38.4565 41.9239 41.6029Z" fill="white"/>
<path fill-rule="evenodd" clip-rule="evenodd" d="M39.737 17.264C41.9209 16.6862 42.6207 13.8311 40.7873 12.5364C38.4682 10.8987 35.3425 12.6919 35.5235 15.2456C35.647 16.989 37.9735 17.7306 39.737 17.264Z" fill="white"/>
<path fill-rule="evenodd" clip-rule="evenodd" d="M60.9128 54.9448C55.6502 59.8725 54.8414 69.0412 57.5733 74.274C62.2117 83.1596 80.9273 81.112 83.8291 70.0636C89.4096 48.8157 67.1285 49.1242 60.9128 54.9448Z" fill="#FD6340"/>
<path fill-rule="evenodd" clip-rule="evenodd" d="M65.0042 58.9589C68.7404 52.7677 77.6349 56.5537 74.5026 62.2232C73.3875 64.2414 72.072 65.8285 72.7296 68.891C73.2235 71.1911 69.6928 71.3448 69.32 68.6394C68.8209 65.0169 69.9385 63.8455 71.0838 61.2265C71.9617 59.2191 69.4033 57.8281 67.2906 61.0355C65.7927 63.3094 63.5164 61.4242 65.0042 58.9589Z" fill="white"/>
<path fill-rule="evenodd" clip-rule="evenodd" d="M70.7149 72.5467C69.5655 73.2785 69.6858 75.0474 70.9764 75.456C72.6089 75.9729 74.0772 74.3703 73.5058 72.9357C73.1158 71.9563 71.643 71.9559 70.7149 72.5467Z" fill="white"/>
</svg>
