<svg xmlns="http://www.w3.org/2000/svg" xmlns:xlink="http://www.w3.org/1999/xlink" data-name="Layer 1" viewBox="0 0 1400 1000" id="robot-finding-data"><defs><linearGradient id="a" x1="320.45" x2="492.53" y1="556.36" y2="556.36" gradientUnits="userSpaceOnUse"><stop offset="0" stop-color="#4058a6"></stop><stop offset="1" stop-color="#5884c3" stop-opacity=".1"></stop></linearGradient><linearGradient id="d" x1="320.45" x2="492.53" y1="441.16" y2="441.16" xlink:href="#a"></linearGradient><linearGradient id="b" x1="351.08" x2="395.51" y1="483.77" y2="483.77" gradientUnits="userSpaceOnUse"><stop offset="0" stop-color="#4058a6"></stop><stop offset=".25" stop-color="#415aa8" stop-opacity=".97"></stop><stop offset=".49" stop-color="#4562ad" stop-opacity=".89"></stop><stop offset=".72" stop-color="#4c6fb5" stop-opacity=".74"></stop><stop offset=".96" stop-color="#5680c0" stop-opacity=".54"></stop><stop offset="1" stop-color="#5884c3" stop-opacity=".5"></stop></linearGradient><linearGradient id="e" x1="417.47" x2="461.89" y1="483.77" y2="483.77" xlink:href="#b"></linearGradient><linearGradient id="f" x1="417.47" x2="461.89" y1="521.21" y2="521.21" xlink:href="#b"></linearGradient><linearGradient id="g" x1="340.1" x2="389.57" y1="510.48" y2="510.48" xlink:href="#b"></linearGradient><linearGradient id="h" x1="340.1" x2="389.57" y1="523.44" y2="523.44" xlink:href="#b"></linearGradient><linearGradient id="i" x1="340.1" x2="389.57" y1="536.4" y2="536.4" xlink:href="#b"></linearGradient><linearGradient id="j" x1="340.1" x2="467.33" y1="549.36" y2="549.36" xlink:href="#b"></linearGradient><linearGradient id="k" x1="340.1" x2="467.33" y1="562.32" y2="562.32" xlink:href="#b"></linearGradient><linearGradient id="l" x1="340.1" x2="467.33" y1="575.28" y2="575.28" xlink:href="#b"></linearGradient><linearGradient id="m" x1="340.1" x2="467.33" y1="588.24" y2="588.24" xlink:href="#b"></linearGradient><linearGradient id="n" x1="340.1" x2="467.33" y1="601.2" y2="601.2" xlink:href="#b"></linearGradient><linearGradient id="o" x1="340.1" x2="467.33" y1="614.16" y2="614.16" xlink:href="#b"></linearGradient><linearGradient id="p" x1="340.1" x2="467.33" y1="627.6" y2="627.6" xlink:href="#b"></linearGradient><linearGradient id="q" x1="340.1" x2="467.33" y1="640.56" y2="640.56" xlink:href="#b"></linearGradient><linearGradient id="r" x1="340.1" x2="467.33" y1="653.52" y2="653.52" xlink:href="#b"></linearGradient><linearGradient id="c" x1="199.06" x2="496.32" y1="305.73" y2="305.73" gradientUnits="userSpaceOnUse"><stop offset="0" stop-color="#f25654"></stop><stop offset=".09" stop-color="#f25a58" stop-opacity=".97"></stop><stop offset=".22" stop-color="#f36765" stop-opacity=".9"></stop><stop offset=".37" stop-color="#f57b79" stop-opacity=".78"></stop><stop offset=".54" stop-color="#f79796" stop-opacity=".62"></stop><stop offset=".72" stop-color="#fabbba" stop-opacity=".4"></stop><stop offset=".9" stop-color="#fde6e6" stop-opacity=".15"></stop><stop offset="1" stop-color="#fff" stop-opacity="0"></stop></linearGradient><linearGradient id="s" x1="345.72" x2="467.26" y1="304.65" y2="304.65" xlink:href="#b"></linearGradient><linearGradient id="t" x1="219" x2="313.61" y1="269.01" y2="269.01" xlink:href="#b"></linearGradient><linearGradient id="u" x1="233.18" x2="282.65" y1="299.61" y2="299.61" xlink:href="#b"></linearGradient><linearGradient id="v" x1="233.18" x2="282.65" y1="316.17" y2="316.17" xlink:href="#b"></linearGradient><linearGradient id="w" x1="233.18" x2="282.65" y1="332.73" y2="332.73" xlink:href="#b"></linearGradient><linearGradient id="x" x1="569.93" x2="675.77" y1="264.15" y2="264.15" xlink:href="#c"></linearGradient><linearGradient id="y" x1="614.21" x2="720.05" y1="246.33" y2="246.33" xlink:href="#b"></linearGradient><linearGradient id="z" x1="822.74" x2="1051.7" y1="146.21" y2="146.21" xlink:href="#a"></linearGradient><linearGradient id="A" x1="842.18" x2="943.7" y1="222.57" y2="222.57" xlink:href="#b"></linearGradient><linearGradient id="B" x1="842.18" x2="943.7" y1="315.45" y2="315.45" xlink:href="#b"></linearGradient><linearGradient id="C" x1="964.88" x2="1025.31" y1="180.79" y2="180.79" xlink:href="#b"></linearGradient><linearGradient id="D" x1="964.88" x2="1025.31" y1="206.71" y2="206.71" xlink:href="#b"></linearGradient><linearGradient id="E" x1="964.88" x2="1025.31" y1="232.63" y2="232.63" xlink:href="#b"></linearGradient><linearGradient id="F" x1="964.88" x2="1025.31" y1="258.55" y2="258.55" xlink:href="#b"></linearGradient><linearGradient id="G" x1="964.88" x2="1025.31" y1="285.88" y2="285.88" xlink:href="#b"></linearGradient><linearGradient id="H" x1="964.88" x2="1025.31" y1="311.8" y2="311.8" xlink:href="#b"></linearGradient><linearGradient id="I" x1="964.88" x2="1025.31" y1="337.72" y2="337.72" xlink:href="#b"></linearGradient><linearGradient id="J" x1="964.88" x2="1025.31" y1="363.65" y2="363.65" xlink:href="#b"></linearGradient><linearGradient id="K" x1="888.48" x2="1213.92" y1="475.67" y2="475.67" xlink:href="#c"></linearGradient><linearGradient id="L" x1="944.64" x2="1035.36" y1="444.77" y2="444.77" xlink:href="#b"></linearGradient><linearGradient id="M" x1="1072.8" x2="1157.76" y1="444.83" y2="444.83" xlink:href="#b"></linearGradient><linearGradient id="N" x1="952.59" x2="1149.81" y1="509.62" y2="509.62" xlink:href="#b"></linearGradient><linearGradient id="O" x1="952.59" x2="1149.81" y1="535.54" y2="535.54" xlink:href="#b"></linearGradient><linearGradient id="P" x1="952.59" x2="1149.81" y1="561.46" y2="561.46" xlink:href="#b"></linearGradient><linearGradient id="Q" x1="755.06" x2="1025.78" y1="684.52" y2="684.52" gradientUnits="userSpaceOnUse"><stop offset="0" stop-color="#f2ba34"></stop><stop offset=".13" stop-color="#f2bb37" stop-opacity=".98"></stop><stop offset=".26" stop-color="#f3be41" stop-opacity=".94"></stop><stop offset=".39" stop-color="#f4c452" stop-opacity=".85"></stop><stop offset=".52" stop-color="#f5cc69" stop-opacity=".74"></stop><stop offset=".64" stop-color="#f7d686" stop-opacity=".59"></stop><stop offset=".77" stop-color="#fae2ab" stop-opacity=".41"></stop><stop offset=".89" stop-color="#fcf1d5" stop-opacity=".21"></stop><stop offset="1" stop-color="#fff" stop-opacity="0"></stop></linearGradient><linearGradient id="R" x1="791.8" x2="871.27" y1="639.81" y2="639.81" xlink:href="#b"></linearGradient><linearGradient id="S" x1="791.8" x2="871.27" y1="626.85" y2="626.85" xlink:href="#b"></linearGradient><linearGradient id="T" x1="791.8" x2="871.27" y1="652.77" y2="652.77" xlink:href="#b"></linearGradient><linearGradient id="U" x1="791.8" x2="871.27" y1="665.73" y2="665.73" xlink:href="#b"></linearGradient><linearGradient id="V" x1="791.8" x2="871.27" y1="678.69" y2="678.69" xlink:href="#b"></linearGradient><linearGradient id="W" x1="791.8" x2="989.03" y1="691.65" y2="691.65" xlink:href="#b"></linearGradient><linearGradient id="X" x1="791.8" x2="989.03" y1="704.61" y2="704.61" xlink:href="#b"></linearGradient><linearGradient id="Y" x1="791.8" x2="989.03" y1="717.57" y2="717.57" xlink:href="#b"></linearGradient><linearGradient id="Z" x1="791.8" x2="989.03" y1="730.53" y2="730.53" xlink:href="#b"></linearGradient><linearGradient id="aa" x1="791.8" x2="989.03" y1="743.49" y2="743.49" xlink:href="#b"></linearGradient><linearGradient id="ab" x1="791.8" x2="989.03" y1="756.45" y2="756.45" xlink:href="#b"></linearGradient><linearGradient id="ac" x1="791.8" x2="989.03" y1="769.41" y2="769.41" xlink:href="#b"></linearGradient><linearGradient id="ad" x1="890.42" x2="984.02" y1="650.28" y2="650.28" xlink:href="#b"></linearGradient></defs><polygon fill="#f0f3f8" points="1085.73 743.38 259.84 743.38 259.84 315.25 379.05 196.05 1204.93 196.05 1204.93 624.17 1085.73 743.38"></polygon><rect width="172.08" height="256.32" x="320.45" y="428.2" fill="#e7ebf6" rx="4"></rect><rect width="172.08" height="256.32" x="320.45" y="428.2" fill="url(#a)" opacity=".51" rx="4"></rect><path fill="url(#d)" d="M324.45,428.2H488.53a4,4,0,0,1,4,4v21.92a0,0,0,0,1,0,0H320.45a0,0,0,0,1,0,0V432.2A4,4,0,0,1,324.45,428.2Z"></path><g opacity=".53"><rect width="44.43" height="25.92" x="351.08" y="470.81" fill="url(#b)" rx="4"></rect><rect width="44.43" height="25.92" x="417.47" y="470.81" fill="url(#e)" rx="4"></rect><rect width="44.43" height="25.92" x="417.47" y="508.25" fill="url(#f)" rx="4"></rect></g><circle cx="406.49" cy="669.04" r="8.28" fill="#a8b9df"></circle><circle cx="406.49" cy="441.16" r="2.4" fill="#dde4f3"></circle><g opacity=".47"><line x1="340.1" x2="389.57" y1="510.48" y2="510.48" fill="none" stroke="url(#g)" stroke-miterlimit="10" stroke-width="4"></line><line x1="340.1" x2="389.57" y1="523.44" y2="523.44" fill="none" stroke="url(#h)" stroke-miterlimit="10" stroke-width="4"></line><line x1="340.1" x2="389.57" y1="536.4" y2="536.4" fill="none" stroke="url(#i)" stroke-miterlimit="10" stroke-width="4"></line><line x1="340.1" x2="467.33" y1="549.36" y2="549.36" fill="none" stroke="url(#j)" stroke-miterlimit="10" stroke-width="4"></line><line x1="340.1" x2="467.33" y1="562.32" y2="562.32" fill="none" stroke="url(#k)" stroke-miterlimit="10" stroke-width="4"></line><line x1="340.1" x2="467.33" y1="575.28" y2="575.28" fill="none" stroke="url(#l)" stroke-miterlimit="10" stroke-width="4"></line><line x1="340.1" x2="467.33" y1="588.24" y2="588.24" fill="none" stroke="url(#m)" stroke-miterlimit="10" stroke-width="4"></line><line x1="340.1" x2="467.33" y1="601.2" y2="601.2" fill="none" stroke="url(#n)" stroke-miterlimit="10" stroke-width="4"></line><line x1="340.1" x2="467.33" y1="614.16" y2="614.16" fill="none" stroke="url(#o)" stroke-miterlimit="10" stroke-width="4"></line><line x1="340.1" x2="467.33" y1="627.6" y2="627.6" fill="none" stroke="url(#p)" stroke-miterlimit="10" stroke-width="4"></line><line x1="340.1" x2="467.33" y1="640.56" y2="640.56" fill="none" stroke="url(#q)" stroke-miterlimit="10" stroke-width="4"></line><line x1="340.1" x2="467.33" y1="653.52" y2="653.52" fill="none" stroke="url(#r)" stroke-miterlimit="10" stroke-width="4"></line></g><g data-name="Tabs"><path fill="url(#c)" d="M199.06,246.33H496.32a0,0,0,0,1,0,0v114.8a4,4,0,0,1-4,4H203.06a4,4,0,0,1-4-4V246.33A0,0,0,0,1,199.06,246.33Z" opacity=".47"></path><path fill="#a8b9df" d="M492.32,225.45H203.06a4,4,0,0,0-4,4v16.88H496.32V229.45A4,4,0,0,0,492.32,225.45Z"></path><rect width="121.54" height="47.52" x="345.72" y="280.89" fill="url(#s)" opacity=".53" rx="4"></rect><rect width="94.61" height="15.12" x="219" y="261.45" fill="url(#t)" opacity=".53" rx="4"></rect><circle cx="482.45" cy="236.18" r="2.4" fill="#ee6355"></circle><circle cx="469.76" cy="236.18" r="2.4" fill="#44b562"></circle><circle cx="457.06" cy="236.18" r="2.4" fill="#efdc54"></circle><g opacity=".47"><line x1="233.18" x2="282.65" y1="299.61" y2="299.61" fill="none" stroke="url(#u)" stroke-miterlimit="10" stroke-width="7"></line><line x1="233.18" x2="282.65" y1="316.17" y2="316.17" fill="none" stroke="url(#v)" stroke-miterlimit="10" stroke-width="7"></line><line x1="233.18" x2="282.65" y1="332.73" y2="332.73" fill="none" stroke="url(#w)" stroke-miterlimit="10" stroke-width="7"></line></g></g><g data-name="Tabs"><rect width="105.84" height="35.64" x="569.93" y="246.33" fill="url(#x)" opacity=".47"></rect><polygon fill="url(#y)" points="614.21 228.51 614.21 246.33 675.77 246.33 675.77 264.15 720.05 264.15 720.05 228.51 614.21 228.51" opacity=".53"></polygon><circle cx="592.37" cy="264.15" r="9.6" fill="#a8b9df"></circle><line x1="612.53" x2="659.57" y1="269.73" y2="269.73" fill="none" stroke="#5179bb" stroke-miterlimit="10" stroke-width="3"></line><line x1="612.53" x2="659.57" y1="258.57" y2="258.57" fill="none" stroke="#5179bb" stroke-miterlimit="10" stroke-width="3"></line></g><g data-name="Tabs"><rect width="228.96" height="247.68" x="822.74" y="134.73" fill="#e7ebf6" rx="4"></rect><path fill="url(#z)" d="M826.74,134.73h221a4,4,0,0,1,4,4v19a0,0,0,0,1,0,0h-229a0,0,0,0,1,0,0v-19A4,4,0,0,1,826.74,134.73Z"></path><g opacity=".53"><rect width="101.52" height="65.52" x="842.18" y="189.81" fill="url(#A)" rx="4"></rect><rect width="101.52" height="61.2" x="842.18" y="284.85" fill="url(#B)" rx="4"></rect></g><circle cx="1037.58" cy="146.57" r="5.25" fill="#ee6355"></circle><circle cx="1009.84" cy="146.57" r="5.25" fill="#44b562"></circle><circle cx="982.09" cy="146.57" r="5.25" fill="#efdc54"></circle><g opacity=".43"><line x1="964.88" x2="1025.31" y1="180.79" y2="180.79" fill="none" stroke="url(#C)" stroke-miterlimit="10" stroke-width="7"></line><line x1="964.88" x2="1025.31" y1="206.71" y2="206.71" fill="none" stroke="url(#D)" stroke-miterlimit="10" stroke-width="7"></line><line x1="964.88" x2="1025.31" y1="232.63" y2="232.63" fill="none" stroke="url(#E)" stroke-miterlimit="10" stroke-width="7"></line><line x1="964.88" x2="1025.31" y1="258.55" y2="258.55" fill="none" stroke="url(#F)" stroke-miterlimit="10" stroke-width="7"></line><line x1="964.88" x2="1025.31" y1="285.88" y2="285.88" fill="none" stroke="url(#G)" stroke-miterlimit="10" stroke-width="7"></line><line x1="964.88" x2="1025.31" y1="311.8" y2="311.8" fill="none" stroke="url(#H)" stroke-miterlimit="10" stroke-width="7"></line><line x1="964.88" x2="1025.31" y1="337.72" y2="337.72" fill="none" stroke="url(#I)" stroke-miterlimit="10" stroke-width="7"></line><line x1="964.88" x2="1025.31" y1="363.65" y2="363.65" fill="none" stroke="url(#J)" stroke-miterlimit="10" stroke-width="7"></line></g></g><g data-name="Tabs"><rect width="325.44" height="233.04" x="888.48" y="359.15" fill="url(#K)" opacity=".47" rx="4"></rect><path fill="#a8b9df" d="M892.48,359.15h317.44a4,4,0,0,1,4,4V388.6a0,0,0,0,1,0,0H888.48a0,0,0,0,1,0,0V363.15A4,4,0,0,1,892.48,359.15Z"></path><g opacity=".53"><rect width="90.72" height="61.8" x="944.64" y="413.87" fill="url(#L)" rx="4"></rect><rect width="84.96" height="61.92" x="1072.8" y="413.87" fill="url(#M)" rx="4"></rect></g><circle cx="1195.04" cy="373.87" r="3.45" fill="#ee6355"></circle><circle cx="1176.8" cy="373.87" r="3.45" fill="#44b562"></circle><circle cx="1158.55" cy="373.87" r="3.45" fill="#efdc54"></circle><g opacity=".5"><line x1="952.59" x2="1149.81" y1="509.62" y2="509.62" fill="none" stroke="url(#N)" stroke-miterlimit="10" stroke-width="7"></line><line x1="952.59" x2="1149.81" y1="535.54" y2="535.54" fill="none" stroke="url(#O)" stroke-miterlimit="10" stroke-width="7"></line><line x1="952.59" x2="1149.81" y1="561.46" y2="561.46" fill="none" stroke="url(#P)" stroke-miterlimit="10" stroke-width="7"></line></g></g><g data-name="Tabs"><rect width="270.72" height="220.32" x="755.06" y="574.36" fill="url(#Q)" opacity=".47" rx="4"></rect><g opacity=".54"><line x1="791.8" x2="871.27" y1="639.81" y2="639.81" fill="none" stroke="url(#R)" stroke-miterlimit="10" stroke-width="4"></line><line x1="791.8" x2="871.27" y1="626.85" y2="626.85" fill="none" stroke="url(#S)" stroke-miterlimit="10" stroke-width="4"></line><line x1="791.8" x2="871.27" y1="652.77" y2="652.77" fill="none" stroke="url(#T)" stroke-miterlimit="10" stroke-width="4"></line><line x1="791.8" x2="871.27" y1="665.73" y2="665.73" fill="none" stroke="url(#U)" stroke-miterlimit="10" stroke-width="4"></line><line x1="791.8" x2="871.27" y1="678.69" y2="678.69" fill="none" stroke="url(#V)" stroke-miterlimit="10" stroke-width="4"></line><line x1="791.8" x2="989.03" y1="691.65" y2="691.65" fill="none" stroke="url(#W)" stroke-miterlimit="10" stroke-width="4"></line><line x1="791.8" x2="989.03" y1="704.61" y2="704.61" fill="none" stroke="url(#X)" stroke-miterlimit="10" stroke-width="4"></line><line x1="791.8" x2="989.03" y1="717.57" y2="717.57" fill="none" stroke="url(#Y)" stroke-miterlimit="10" stroke-width="4"></line><line x1="791.8" x2="989.03" y1="730.53" y2="730.53" fill="none" stroke="url(#Z)" stroke-miterlimit="10" stroke-width="4"></line><line x1="791.8" x2="989.03" y1="743.49" y2="743.49" fill="none" stroke="url(#aa)" stroke-miterlimit="10" stroke-width="4"></line><line x1="791.8" x2="989.03" y1="756.45" y2="756.45" fill="none" stroke="url(#ab)" stroke-miterlimit="10" stroke-width="4"></line><line x1="791.8" x2="989.03" y1="769.41" y2="769.41" fill="none" stroke="url(#ac)" stroke-miterlimit="10" stroke-width="4"></line></g><path fill="#a8b9df" d="M759.06,574.36h262.72a4,4,0,0,1,4,4v24.79a0,0,0,0,1,0,0H755.06a0,0,0,0,1,0,0V578.36A4,4,0,0,1,759.06,574.36Z"></path><rect width="93.6" height="56.82" x="890.42" y="621.88" fill="url(#ad)" opacity=".53" rx="4"></rect><circle cx="1006.1" cy="588.76" r="3.45" fill="#ee6355"></circle><circle cx="987.85" cy="588.76" r="3.45" fill="#44b562"></circle><circle cx="969.6" cy="588.76" r="3.45" fill="#efdc54"></circle></g><g><path fill="#a4b5dd" d="M1249.62,247.32a2.49,2.49,0,0,0-3.53.19l-13.61,15.16a109.5,109.5,0,0,0,.91-38.69c-5.46-35-23.1-61.92-49.67-75.75-39.51-20.58-78.64-3.29-86.09.38a2.5,2.5,0,0,0,2.21,4.49c4.33-2.14,43.41-20.31,81.57-.44,25.12,13.09,41.83,38.69,47,72.09a105.07,105.07,0,0,1-1.49,39.81l-12.54-17.79a2.5,2.5,0,1,0-4.09,2.88l15.11,21.44a2.49,2.49,0,0,0,1.8,2.17,13.31,13.31,0,0,1,1,.18h.15a2.49,2.49,0,0,0,1.86-.83l19.55-21.77A2.5,2.5,0,0,0,1249.62,247.32Z"></path></g><g data-name="Arrows"><path fill="#a4b5dd" d="M165.07,464.77a2.51,2.51,0,0,0,3.23,1.44l19-7.29a109.85,109.85,0,0,0-18.45,34c-11.09,33.66-7.65,65.65,9.7,90.07,25.79,36.32,68.5,38.77,76.8,38.89a2.5,2.5,0,1,0,.07-5c-4.83-.07-47.89-1.7-72.8-36.78-16.4-23.1-19.6-53.5-9-85.61a105,105,0,0,1,19.48-34.75l3,21.55a2.5,2.5,0,0,0,5-.7l-3.68-26a2.5,2.5,0,0,0-.61-2.76,3.71,3.71,0,0,0-.32-.23,2.4,2.4,0,0,0-.5-.39l-.13-.07a2.48,2.48,0,0,0-2-.11l-27.33,10.47A2.5,2.5,0,0,0,165.07,464.77Z"></path></g><g data-name="Arrows"><path fill="#a4b5dd" d="M1202.36,638.78a2.5,2.5,0,1,0-4.14,2.79c4.5,6.71,12,20.63,11.21,38.59-.06,1.32-1.65,32.5-27.28,49.11-5,3.24-15.77,9.25-27.13,9.46a39.85,39.85,0,0,0-.62-6.25c-1.87-10.44-8.64-25-17.9-25h-.16c-6.15.11-11.35,6.5-12.18,12.16-1.48,10.19,10.2,18.38,16.59,21.28a31.67,31.67,0,0,0,9.09,2.57c-1.45,14.45-10.8,26-14.14,29.71-8.8,9.76-20.68,16-35.31,18.41-20.67,3.48-37.33-4-45.42-8.77a2.5,2.5,0,0,0-2.54,4.31,74.5,74.5,0,0,0,37.3,10.36,69.16,69.16,0,0,0,11.49-1c15.77-2.65,28.62-9.37,38.19-20,3.66-4,13.88-16.71,15.43-32.77,12.73-.16,24.54-6.71,30-10.26,27.78-18,29.49-51.68,29.55-53.1C1215.23,661,1207.21,646,1202.36,638.78Zm-59.54,97.55c-5.82-2.65-14.68-9.33-13.71-16,.57-3.92,4.2-7.82,7.32-7.88h.07c5.21,0,11.24,11.21,13,20.92a34.09,34.09,0,0,1,.53,5.07A26.91,26.91,0,0,1,1142.82,736.33Z"></path></g><g data-name="Robot\Leg\Front"><circle cx="641.73" cy="853.42" r="8.97" fill="#30302f"></circle><path fill="none" stroke="#30302f" stroke-miterlimit="10" stroke-width="3" d="M633.31,828.4h9.47c1.76,0,3.16,1,3.07,2.28l-2.61,38.44c-.08,1.17-1.43,2.08-3.07,2.08h-5.66"></path><polygon fill="#677eba" points="637.2 851.62 607.13 854.76 616.55 730.49 610.79 600.64 651.63 558.66 627.28 728.11 637.2 851.62"></polygon><path fill="#526db3" d="M637.2,851.62V884H565.69v-11a7.64,7.64,0,0,1,7.45-7.62c10.43-.28,29.23-2.44,34.23-13.81Z"></path><path fill="#4e4f50" d="M613.79,574.36h23.28a3,3,0,0,1,3,3v3.48a22.8,22.8,0,0,1-22.8,22.8h-3.48a3,3,0,0,1-3-3V577.36A3,3,0,0,1,613.79,574.36Z"></path><path fill="#79797a" d="M615.24,586.77h-1.18a3.28,3.28,0,0,1-3.27-3.27v7.84a3.28,3.28,0,0,0,3.27,3.27h1.18a24.83,24.83,0,0,0,24.83-24.83V568.6a3.2,3.2,0,0,0-.49-1.71A24.85,24.85,0,0,1,615.24,586.77Z"></path><path fill="#4e4f50" d="M624,628.26c1.06,16.23,1.53,32.44,1.79,48.66.19,8.1.16,16.21.24,24.32l-.11,24.31q-.24,24.32-1.19,48.62c-.62,16.21-1.45,32.41-2.88,48.61-1.07-16.23-1.55-32.44-1.81-48.66s-.31-32.42-.11-48.63l.43-24.32c.25-8.1.4-16.2.77-24.3C621.76,660.66,622.59,644.46,624,628.26Z"></path><path fill="#30302f" d="M637,884a8.93,8.93,0,0,0-2.9-6,8.48,8.48,0,0,0-6-2.17,8.13,8.13,0,0,0-5.61,2.57,8,8,0,0,0-2.14,5.62H618a7.88,7.88,0,0,0-2.37-5.38,7.61,7.61,0,0,0-10.65.11,7.49,7.49,0,0,0-2.15,5.27h-3a7.49,7.49,0,0,0-2.15-5.27,7.61,7.61,0,0,0-10.65-.11,7.88,7.88,0,0,0-2.37,5.38h-2.34a7.91,7.91,0,0,0-2.14-5.61,8.07,8.07,0,0,0-5.61-2.57,8.38,8.38,0,0,0-6,2.17,8.89,8.89,0,0,0-2.9,6,9,9,0,0,1,2.31-6.6,9.46,9.46,0,0,1,6.6-3.06,9.77,9.77,0,0,1,7,2.66,9.87,9.87,0,0,1,3.09,7h-2.34a10.07,10.07,0,0,1,2.85-7.24,10.25,10.25,0,0,1,14.58-.11,10.39,10.39,0,0,1,3.07,7.35h-3a10.4,10.4,0,0,1,3.07-7.34,10.22,10.22,0,0,1,14.57.1,10,10,0,0,1,2.85,7.24H618a9.93,9.93,0,0,1,3.09-7,9.76,9.76,0,0,1,7-2.65,9.37,9.37,0,0,1,6.6,3A8.93,8.93,0,0,1,637,884Z"></path><circle cx="623.42" cy="730.11" r="14.78" fill="#4e4f50"></circle><circle cx="623.42" cy="730.11" r="8.45" fill="#30302f"></circle><circle cx="665.18" cy="853.42" r="8.97" fill="#30302f"></circle><path fill="none" stroke="#30302f" stroke-miterlimit="10" stroke-width="3" d="M673.6,828.4h-9.47c-1.75,0-3.16,1-3.07,2.28l2.61,38.44c.08,1.17,1.43,2.08,3.07,2.08h5.66"></path><polygon fill="#677eba" points="669.71 851.62 699.78 854.76 690.36 730.49 696.12 600.64 655.28 558.66 679.63 728.11 669.71 851.62"></polygon><path fill="#526db3" d="M669.71,851.62V884h71.51v-11a7.64,7.64,0,0,0-7.45-7.62c-10.43-.28-29.23-2.44-34.23-13.81Z"></path><path fill="#4e4f50" d="M669.84,574.36h3.48a22.8,22.8,0,0,1,22.8,22.8v3.48a3,3,0,0,1-3,3H669.84a3,3,0,0,1-3-3V577.36A3,3,0,0,1,669.84,574.36Z" transform="rotate(-180 681.48 589.005)"></path><path fill="#79797a" d="M691.67,586.77h1.18a3.27,3.27,0,0,0,3.27-3.27v7.84a3.27,3.27,0,0,1-3.27,3.27h-1.18a24.83,24.83,0,0,1-24.83-24.83V568.6a3.29,3.29,0,0,1,.49-1.71A24.85,24.85,0,0,0,691.67,586.77Z"></path><path fill="#4e4f50" d="M682.9,628.26c1.42,16.2,2.25,32.4,2.87,48.61.37,8.1.52,16.2.77,24.3l.44,24.32q.28,24.32-.12,48.63c-.26,16.22-.74,32.43-1.8,48.66-1.43-16.2-2.27-32.4-2.88-48.61s-1-32.41-1.2-48.62l-.1-24.31c.07-8.11,0-16.22.23-24.32C681.37,660.7,681.84,644.49,682.9,628.26Z"></path><path fill="#30302f" d="M669.89,884a8.93,8.93,0,0,1,2.32-6.6,9.37,9.37,0,0,1,6.6-3,9.76,9.76,0,0,1,7,2.65,9.89,9.89,0,0,1,3.09,7h-2.33a10,10,0,0,1,2.85-7.24A10.31,10.31,0,0,1,707.06,884h-3a10.48,10.48,0,0,1,3.07-7.35,10.25,10.25,0,0,1,14.58.11,10,10,0,0,1,2.85,7.24h-2.34a9.91,9.91,0,0,1,3.09-7,9.77,9.77,0,0,1,7-2.66,9.44,9.44,0,0,1,6.6,3.06,9,9,0,0,1,2.31,6.6,8.89,8.89,0,0,0-2.9-6,8.37,8.37,0,0,0-6-2.17,8.07,8.07,0,0,0-5.61,2.57,7.91,7.91,0,0,0-2.14,5.61h-2.34a7.88,7.88,0,0,0-2.37-5.38,7.59,7.59,0,0,0-10.64.11,7.4,7.4,0,0,0-2.15,5.27h-3a7.48,7.48,0,0,0-7.42-7.5,7.6,7.6,0,0,0-5.38,2.12,7.88,7.88,0,0,0-2.37,5.38h-2.33a8,8,0,0,0-2.14-5.62,8.11,8.11,0,0,0-5.61-2.57,8.48,8.48,0,0,0-6,2.17A8.93,8.93,0,0,0,669.89,884Z"></path><circle cx="683.5" cy="730.11" r="14.78" fill="#4e4f50"></circle><circle cx="683.5" cy="730.11" r="8.45" fill="#30302f"></circle><path fill="#30302f" d="M696.56,579.35a192.4,192.4,0,0,1-86,.74,58.31,58.31,0,0,0-1.74-17.94,59.63,59.63,0,0,0-12-23.22,2.17,2.17,0,0,1,1.68-3.56H708.8a2.17,2.17,0,0,1,1.79,3.41,79.68,79.68,0,0,0-14,40.57Z"></path><path fill="#677eba" d="M696.56,579.35a192.4,192.4,0,0,1-86,.74,58.31,58.31,0,0,0-1.74-17.94,59.63,59.63,0,0,0-12-23.22,2.17,2.17,0,0,1,1.68-3.56H708.8a2.17,2.17,0,0,1,1.79,3.41,79.68,79.68,0,0,0-14,40.57Z"></path><path fill="#526db3" d="M699.3,562.9c.18-.64.38-1.24.57-1.86-7.65,4.05-16.28,4.31-34.21,3.46-16.36-.77-29.62-16.08-36.53-29.13H598.81c.06,2.11.13,4.23.23,6.34a59.17,59.17,0,0,1,9.81,20.44,58.31,58.31,0,0,1,1.74,17.94,192.4,192.4,0,0,0,86-.74A80.23,80.23,0,0,1,699.3,562.9Z"></path><path fill="#545554" d="M670.45,561.14a29.26,29.26,0,0,0-34.51-1l-2.36,1.61a25.05,25.05,0,0,1-24.26,2.41c.19.86.36,1.7.5,2.53a27.21,27.21,0,0,0,25-3.14l2.36-1.62a27.08,27.08,0,0,1,31.94.9,27.32,27.32,0,0,0,29.54,2.53c.2-.82.41-1.65.64-2.49l.15-.48a25.2,25.2,0,0,1-29-1.28Z"></path><path fill="#484748" d="M645.45 555.9a29.61 29.61 0 00-9.51 4.27l-2.36 1.61a25.05 25.05 0 01-24.26 2.41c.19.86.36 1.7.5 2.53h0a27.21 27.21 0 0025-3.14l2.36-1.62a27.18 27.18 0 0110.51-4.32C646.93 557.09 646.19 556.51 645.45 555.9zM685.88 566.4a25.13 25.13 0 01-8.55-1.52c-1.68 0-3.45-.06-5.35-.12a27.2 27.2 0 0026.68.63h0c.2-.82.41-1.65.64-2.49l.15-.48A25.35 25.35 0 01685.88 566.4z"></path><path fill="#99aed9" d="M631.68,537.55a177,177,0,0,1,24.54-3.15c8.16-.55,16.32-.71,24.46-.6,2,0,4.08.06,6.11.15s4.08.12,6.11.25,4.07.21,6.11.36l3,.22,1.53.14.51,0a6.17,6.17,0,0,1,1.07.16,6.34,6.34,0,0,1,2.12.91,6.4,6.4,0,0,1,2.6,3.56,6.22,6.22,0,0,1-.34,4.33,5.9,5.9,0,0,1-.52.92l-.14.19-.06.07-.12.14-.48.57-1,1.12c-1.26,1.49-2.46,2.93-3.56,4.49-2.23,3.12-4.14,6.81-6.49,10.38a41.19,41.19,0,0,1,1.44-12.75,35.16,35.16,0,0,1,2.47-6.14l.72-1.43.38-.69.09-.17.05-.09,0,0a1.8,1.8,0,0,0-.18.25,2,2,0,0,0,.57,2.52,2.09,2.09,0,0,0,.7.35c.15,0,.22.06.32.07s0,0-.06,0h-.19l-1.53.06-3.07.06c-2,.06-4.08.07-6.12.07s-4.08,0-6.12-.06-4.08-.09-6.12-.16c-8.16-.3-16.31-.86-24.46-1.82A177,177,0,0,1,631.68,537.55Z"></path><path fill="none" stroke="#30302f" stroke-miterlimit="10" stroke-width="4" d="M696.56,579.35a192.4,192.4,0,0,1-86,.74,58.31,58.31,0,0,0-1.74-17.94,59.63,59.63,0,0,0-12-23.22,2.17,2.17,0,0,1,1.68-3.56H708.8a2.17,2.17,0,0,1,1.79,3.41,79.68,79.68,0,0,0-14,40.57Z"></path></g><g data-name="Robot\Head\Front"><rect width="19.3" height="15.95" x="640.74" y="400.76" fill="#30302f" transform="rotate(-180 650.39 408.74)"></rect><rect width="46.85" height="26.09" x="670.18" y="374.6" fill="#406199" rx="5" transform="rotate(-180 693.605 387.65)"></rect><rect width="76.02" height="76.02" x="598.72" y="324.68" fill="#526db3" rx="7" transform="rotate(-180 636.735 362.685)"></rect><rect width="76.02" height="76.02" x="622.03" y="324.68" fill="#657ebd" rx="7" transform="rotate(-180 660.04 362.685)"></rect><rect width="13.13" height="9.2" x="677.81" y="351.62" fill="#30302f" rx="1" transform="rotate(90 684.375 356.225)"></rect><rect width="13.13" height="9.2" x="646.87" y="351.62" fill="#30302f" rx="1" transform="rotate(90 653.435 356.225)"></rect><rect width="25.29" height="10.2" x="649.45" y="374.04" fill="#30302f" rx="1" transform="rotate(-180 662.1 379.14)"></rect><rect width="46.85" height="26.09" x="589.88" y="374.6" fill="#406199" rx="5" transform="rotate(-180 613.305 387.65)"></rect><path fill="#2b5599" d="M594.88,374.6h17.91a5,5,0,0,0-5,5v16.1a5,5,0,0,0,5,5H594.88a5,5,0,0,1-5-5V379.6A5,5,0,0,1,594.88,374.6Z"></path><path fill="#406199" d="M610.46,312.79v48.34a4,4,0,0,0,4,4h12.75a4,4,0,0,0,4-4V332.79a4,4,0,0,1,4-4H689a4,4,0,0,1,4,4v28.34a4,4,0,0,0,4,4h12.75a4,4,0,0,0,4-4V312.79a4,4,0,0,0-4-4H614.46A4,4,0,0,0,610.46,312.79Z"></path><path fill="#2b5599" d="M635.38,313.89h70.4a3.35,3.35,0,0,1,3.36,3.36v47.88H697a4,4,0,0,1-4-4V332.79a4,4,0,0,0-4-4H635.21a4,4,0,0,0-4,3.94V318.05A4.17,4.17,0,0,1,635.38,313.89Z"></path><rect width="19.3" height="15.95" x="650.39" y="400.76" fill="#474748" transform="rotate(-180 660.04 408.74)"></rect></g><g data-name="Robot\Body\Front"><path fill="#526db3" d="M774.73,433.07l-10.64,1.1a5.19,5.19,0,0,1-5.72-5l-1.63-35.14a2.39,2.39,0,0,1,2.15-2.48l12-1.27a2.38,2.38,0,0,1,2.61,2L779.32,427a5.21,5.21,0,0,1-4.59,6.07Zm0,0"></path><path fill="#657ebd" d="M774.73,433.06l-7,.73a5.15,5.15,0,0,0,3.19-5.71l-5.78-34.72a2.39,2.39,0,0,0-2.6-2l-4.55.48a2.54,2.54,0,0,1,.92-.29l12-1.26a2.39,2.39,0,0,1,2.61,2L779.32,427a5.2,5.2,0,0,1-4.59,6.06Zm0,0"></path><rect width="107.17" height="107.17" x="708.72" y="312.15" fill="none" transform="rotate(-50.97 762.223 365.737)"></rect><path fill="#444" d="M768.81,381.14l1.61,9.05-11.5,1.3-.31-9.34Zm0,0"></path><path fill="#f6be1d" d="M789.64,368.06A38.14,38.14,0,1,1,784,314.41a38.14,38.14,0,0,1,5.61,53.65Zm0,0"></path><path fill="#e77b26" d="M729.07,353.68a37.87,37.87,0,0,0,10.6,22.61,38.13,38.13,0,1,1,47.69-58.83,38.14,38.14,0,0,0-58.29,36.22Zm0,0"></path><path fill="#ee9e23" d="M764,382a38,38,0,0,1-31.3-11.36,38.13,38.13,0,0,0,47.69-58.82A38.13,38.13,0,0,1,764,382Zm0,0"></path><path fill="#e2e2e2" d="M782,361.86a28.27,28.27,0,1,1-4.15-39.77A28.26,28.26,0,0,1,782,361.86Zm0,0"></path><path fill="#fff" d="M773,335.9a1.63,1.63,0,0,1-.33-.36,15,15,0,0,0-3.84-3.91,1.67,1.67,0,0,1,1.93-2.73,18.42,18.42,0,0,1,4.68,4.76A1.67,1.67,0,0,1,773,335.9Zm-24.82-3.48a1.61,1.61,0,0,1-.22-.23,1.67,1.67,0,0,1,.2-2.35,18.62,18.62,0,0,1,15.5-4,1.68,1.68,0,0,1-.64,3.29,14.91,14.91,0,0,0-4.52-.2,15.19,15.19,0,0,0-8.19,3.46,1.66,1.66,0,0,1-2.13,0Zm0,0"></path><path fill="#d3d3d3" d="M737.42,351.45a28,28,0,0,0,7.7,16.6,28.26,28.26,0,1,1,35.31-43.55,28.25,28.25,0,0,0-43,26.95Zm0,0"></path><path fill="#ededed" d="M757.43,367.68a28.16,28.16,0,0,1-17.83-4.11A28.26,28.26,0,1,0,774.91,320a28.25,28.25,0,0,1-17.48,47.65Zm0,0"></path><rect width="30.72" height="25.92" x="637.83" y="511.79" fill="#4e4f50" transform="rotate(-180 653.19 524.745)"></rect><rect width="37.06" height="9.84" x="695.64" y="486.2" fill="#ee9e23" transform="rotate(-155.99 714.148 491.141)"></rect><path fill="#787878" d="M701.17,429a28.31,28.31,0,0,1,4,7.76,26.07,26.07,0,0,1-2,21.81A14.93,14.93,0,1,0,701.17,429Z"></path><path fill="#30302f" d="M696.74,466.94a21.23,21.23,0,0,0,9.21-9.19A17.17,17.17,0,0,1,713.57,476c-1.77,8.56-9.28,14.36-17.35,13.84l.78-34.33h0Z"></path><path fill="#e77b26" d="M696.74,466.94l.89-39.58a27.1,27.1,0,0,0-.08-4.55,26.08,26.08,0,0,1,11.24,18.74C710.21,452.66,705.05,462.85,696.74,466.94Z"></path><circle cx="759.01" cy="445.52" r="11.92" fill="#4e4f50"></circle><path fill="#f6be1d" d="M779.68,455.32a4.91,4.91,0,0,0-4.35-6,52.2,52.2,0,0,1-15.08-3.82,52.83,52.83,0,0,1-16-10.55,4.89,4.89,0,0,0-7.24.55l-30.51,39.13a4.91,4.91,0,0,0,.4,6.5L727.73,502a4.88,4.88,0,0,0,4.64,1.3A64.94,64.94,0,0,0,766,482.71,64.13,64.13,0,0,0,779.68,455.32Z"></path><path fill="#ee9e23" d="M740.23,491.2l19.27-27.95a4.1,4.1,0,0,1,5.7-1.05l9.74,6.72a63.12,63.12,0,0,1-30.53,30.14l-3.14-2.16A4.1,4.1,0,0,1,740.23,491.2Z"></path><path fill="#30302f" d="M780.32,416.72s6.57-8.37,2.57-12.41S769,392.9,767.77,393.36,758.68,400,763.26,405s6.79,5.75,6.79,5.75A31,31,0,0,1,780.32,416.72Z"></path><path fill="#f6be1d" d="M754.84,432.34c2.3-6,3.27-12.77,5.32-20.66,2.14-8.19,14.7-.41,21.42,4.46a11.43,11.43,0,0,1,4.66,10.75c-1.1,8-5.64,16.59-10.62,18.77C767.33,449.3,752.52,438.45,754.84,432.34Z"></path><path fill="#787878" d="M595.73,432.47a28.5,28.5,0,0,0-2.59,8.34A26.13,26.13,0,0,0,599,461.94a14.93,14.93,0,1,1-3.22-29.47Z"></path><circle cx="566.21" cy="496.58" r="11.92" fill="#4e4f50"></circle><path fill="#e77b26" d="M608.89,420.33a6.34,6.34,0,0,0-.45,2.35l-.19,45.15c-10.32-2.84-17-14.42-15.11-27C594.62,430.85,601,423,608.89,420.33Z"></path><circle cx="544.47" cy="562.18" r="11.92" fill="#4e4f50"></circle><path fill="#f6be1d" d="M556.72 479l15.09-25.15a5.74 5.74 0 017.86-2l2.14 1.29a14.93 14.93 0 0011.57 9 15.32 15.32 0 003.51.08l.26.15a5.74 5.74 0 012 7.87L584 495.42a5.72 5.72 0 01-7.86 2L558.68 486.9A5.73 5.73 0 01556.72 479zM522.46 559.09a4.93 4.93 0 006.53 3.43 52.32 52.32 0 0134.28-.84 4.9 4.9 0 006.25-3.7q5.07-24.29 10.12-48.57a4.92 4.92 0 00-3.23-5.66l-27.95-9.51a4.86 4.86 0 00-4.73.88 64.92 64.92 0 00-21.07 33.35A64.25 64.25 0 00522.46 559.09z"></path><path fill="#ee9e23" d="M542,509.48l-5,33.59a4.1,4.1,0,0,1-4.65,3.45l-11.7-1.73a63,63,0,0,1,14.1-40.52l3.76.56A4.08,4.08,0,0,1,542,509.48Z"></path><path fill="#f6be1d" d="M525.85,565.87h20.07A20.07,20.07,0,0,1,566,585.94v0A20.07,20.07,0,0,1,545.92,606h-8.69a11.38,11.38,0,0,1-11.38-11.38V565.87A0,0,0,0,1,525.85,565.87Z" transform="rotate(170.08 545.904 585.952)"></path><path fill="#30302f" d="M564.47,575.51s34,11.93,4.68,26.74Z"></path><rect width="90.68" height="106.75" x="607.85" y="414.4" fill="#f6be1d" rx="9" transform="rotate(-180 653.19 467.775)"></rect><line x1="606.4" x2="700.51" y1="454.81" y2="454.81" fill="none" stroke="#e77b26" stroke-miterlimit="10" stroke-width="3"></line></g></svg>